<svg xmlns="http://www.w3.org/2000/svg" xmlns:xlink="http://www.w3.org/1999/xlink" width="500" zoomAndPan="magnify" viewBox="0 0 375 374.999991" height="500" preserveAspectRatio="xMidYMid meet" version="1.0"><defs><g/><clipPath id="5980e46910"><path d="M 142 117 L 217 117 L 217 208.40625 L 142 208.40625 Z M 142 117 " clip-rule="nonzero"/></clipPath><clipPath id="3f38a03e0b"><path d="M 128.804688 83 L 246.554688 83 L 246.554688 195 L 128.804688 195 Z M 128.804688 83 " clip-rule="nonzero"/></clipPath></defs><g fill="#5b0000" fill-opacity="1"><g transform="translate(117.160873, 262.014943)"><g><path d="M 17.28125 -11.109375 L 14.21875 -20.46875 L 11.109375 -11.109375 Z M 9.84375 0 L 0.609375 0 C 1.179688 -0.132812 1.710938 -0.441406 2.203125 -0.921875 C 2.691406 -1.398438 3.144531 -1.960938 3.5625 -2.609375 C 3.988281 -3.265625 4.34375 -3.910156 4.625 -4.546875 C 4.914062 -5.191406 5.144531 -5.734375 5.3125 -6.171875 L 11.078125 -22.640625 C 11.234375 -23.097656 11.378906 -23.640625 11.515625 -24.265625 C 11.660156 -24.890625 11.742188 -25.515625 11.765625 -26.140625 C 11.796875 -26.773438 11.726562 -27.316406 11.5625 -27.765625 C 11.394531 -28.210938 11.082031 -28.492188 10.625 -28.609375 L 19 -28.609375 L 26.921875 -5.921875 C 27.171875 -5.296875 27.515625 -4.546875 27.953125 -3.671875 C 28.390625 -2.804688 28.910156 -2.019531 29.515625 -1.3125 C 30.128906 -0.601562 30.789062 -0.164062 31.5 0 L 18.59375 0 C 19.1875 -0.164062 19.535156 -0.585938 19.640625 -1.265625 C 19.753906 -1.941406 19.738281 -2.703125 19.59375 -3.546875 C 19.445312 -4.398438 19.273438 -5.140625 19.078125 -5.765625 L 18.515625 -7.4375 L 9.890625 -7.4375 L 9.390625 -5.921875 C 9.234375 -5.460938 9.085938 -4.914062 8.953125 -4.28125 C 8.816406 -3.65625 8.734375 -3.035156 8.703125 -2.421875 C 8.671875 -1.816406 8.738281 -1.285156 8.90625 -0.828125 C 9.070312 -0.378906 9.382812 -0.101562 9.84375 0 Z M 9.84375 0 "/></g></g></g><g fill="#5b0000" fill-opacity="1"><g transform="translate(157.443444, 262.014943)"><g><path d="M 14.828125 0 L 2.25 0 C 2.769531 -0.132812 3.191406 -0.445312 3.515625 -0.9375 C 3.835938 -1.425781 4.085938 -2 4.265625 -2.65625 C 4.441406 -3.3125 4.5625 -3.960938 4.625 -4.609375 C 4.695312 -5.265625 4.734375 -5.8125 4.734375 -6.25 L 4.734375 -22.390625 C 4.734375 -22.828125 4.695312 -23.363281 4.625 -24 C 4.5625 -24.644531 4.441406 -25.300781 4.265625 -25.96875 C 4.085938 -26.632812 3.835938 -27.210938 3.515625 -27.703125 C 3.191406 -28.191406 2.769531 -28.492188 2.25 -28.609375 L 18.71875 -28.609375 C 20.289062 -28.609375 21.71875 -28.21875 23 -27.4375 C 24.28125 -26.65625 25.300781 -25.617188 26.0625 -24.328125 C 26.832031 -23.035156 27.21875 -21.585938 27.21875 -19.984375 C 27.21875 -18.316406 26.785156 -16.800781 25.921875 -15.4375 C 25.066406 -14.082031 23.957031 -13.050781 22.59375 -12.34375 L 25.828125 -5.46875 C 26.179688 -4.820312 26.625 -4.09375 27.15625 -3.28125 C 27.6875 -2.476562 28.273438 -1.765625 28.921875 -1.140625 C 29.578125 -0.515625 30.234375 -0.132812 30.890625 0 L 18.0625 0 C 18.519531 -0.132812 18.800781 -0.445312 18.90625 -0.9375 C 19.019531 -1.425781 19.007812 -2 18.875 -2.65625 C 18.738281 -3.3125 18.554688 -3.960938 18.328125 -4.609375 C 18.097656 -5.265625 17.875 -5.8125 17.65625 -6.25 L 15.203125 -11.40625 L 12.34375 -11.40625 L 12.34375 -6.25 C 12.34375 -5.8125 12.375 -5.265625 12.4375 -4.609375 C 12.507812 -3.960938 12.632812 -3.3125 12.8125 -2.65625 C 12.988281 -2 13.238281 -1.425781 13.5625 -0.9375 C 13.894531 -0.445312 14.316406 -0.132812 14.828125 0 Z M 16.0625 -24.921875 L 12.34375 -24.921875 L 12.34375 -15.078125 L 16.0625 -15.078125 C 16.851562 -15.078125 17.519531 -15.5625 18.0625 -16.53125 C 18.601562 -17.5 18.875 -18.648438 18.875 -19.984375 C 18.875 -21.335938 18.601562 -22.5 18.0625 -23.46875 C 17.519531 -24.4375 16.851562 -24.921875 16.0625 -24.921875 Z M 16.0625 -24.921875 "/></g></g></g><g fill="#5b0000" fill-opacity="1"><g transform="translate(197.113241, 262.014943)"><g><path d="M 24.71875 0 L 2.25 0 C 2.769531 -0.132812 3.191406 -0.445312 3.515625 -0.9375 C 3.835938 -1.425781 4.09375 -2 4.28125 -2.65625 C 4.476562 -3.3125 4.609375 -3.960938 4.671875 -4.609375 C 4.742188 -5.265625 4.78125 -5.8125 4.78125 -6.25 L 4.78125 -22.390625 C 4.78125 -22.828125 4.742188 -23.363281 4.671875 -24 C 4.609375 -24.644531 4.476562 -25.300781 4.28125 -25.96875 C 4.09375 -26.632812 3.835938 -27.210938 3.515625 -27.703125 C 3.191406 -28.191406 2.769531 -28.492188 2.25 -28.609375 L 23.90625 -28.609375 L 24.46875 -19.25 C 24.394531 -19.539062 24.210938 -19.992188 23.921875 -20.609375 C 23.640625 -21.222656 23.191406 -21.859375 22.578125 -22.515625 C 21.960938 -23.171875 21.144531 -23.734375 20.125 -24.203125 C 19.101562 -24.679688 17.828125 -24.921875 16.296875 -24.921875 L 12.34375 -24.921875 L 12.34375 -16.21875 C 13.289062 -16.300781 14.207031 -16.460938 15.09375 -16.703125 C 15.976562 -16.953125 16.734375 -17.316406 17.359375 -17.796875 C 17.992188 -18.273438 18.40625 -18.90625 18.59375 -19.6875 L 18.59375 -8.90625 C 18.40625 -9.695312 17.992188 -10.328125 17.359375 -10.796875 C 16.734375 -11.273438 15.976562 -11.640625 15.09375 -11.890625 C 14.207031 -12.140625 13.289062 -12.300781 12.34375 -12.375 L 12.34375 -3.671875 L 17.125 -3.671875 C 18.644531 -3.671875 19.914062 -3.910156 20.9375 -4.390625 C 21.957031 -4.867188 22.773438 -5.429688 23.390625 -6.078125 C 24.003906 -6.734375 24.453125 -7.375 24.734375 -8 C 25.023438 -8.632812 25.210938 -9.085938 25.296875 -9.359375 Z M 24.71875 0 "/></g></g></g><g fill="#5b0000" fill-opacity="1"><g transform="translate(231.71746, 262.014943)"><g><path d="M 17.53125 -5.390625 C 17.53125 -6.285156 17.15625 -7.066406 16.40625 -7.734375 C 15.65625 -8.410156 14.679688 -9.03125 13.484375 -9.59375 C 12.285156 -10.164062 11.019531 -10.753906 9.6875 -11.359375 C 8.351562 -11.960938 7.085938 -12.648438 5.890625 -13.421875 C 4.691406 -14.203125 3.71875 -15.125 2.96875 -16.1875 C 2.21875 -17.25 1.84375 -18.523438 1.84375 -20.015625 C 1.84375 -21.296875 2.117188 -22.492188 2.671875 -23.609375 C 3.234375 -24.734375 4.003906 -25.71875 4.984375 -26.5625 C 5.960938 -27.40625 7.082031 -28.070312 8.34375 -28.5625 C 9.613281 -29.050781 10.957031 -29.296875 12.375 -29.296875 C 13.570312 -29.296875 14.632812 -29.160156 15.5625 -28.890625 C 16.488281 -28.617188 17.347656 -28.335938 18.140625 -28.046875 C 18.929688 -27.765625 19.695312 -27.625 20.4375 -27.625 C 21.707031 -27.625 22.601562 -28.179688 23.125 -29.296875 L 23.65625 -18.515625 C 23.269531 -19.734375 22.53125 -20.851562 21.4375 -21.875 C 20.351562 -22.894531 19.082031 -23.710938 17.625 -24.328125 C 16.164062 -24.941406 14.675781 -25.25 13.15625 -25.25 C 11.988281 -25.25 11.0625 -25.050781 10.375 -24.65625 C 9.695312 -24.257812 9.359375 -23.707031 9.359375 -23 C 9.359375 -22.238281 9.734375 -21.566406 10.484375 -20.984375 C 11.234375 -20.398438 12.207031 -19.84375 13.40625 -19.3125 C 14.601562 -18.78125 15.867188 -18.210938 17.203125 -17.609375 C 18.535156 -17.015625 19.800781 -16.320312 21 -15.53125 C 22.195312 -14.738281 23.175781 -13.796875 23.9375 -12.703125 C 24.707031 -11.617188 25.09375 -10.300781 25.09375 -8.75 C 25.09375 -7.03125 24.609375 -5.453125 23.640625 -4.015625 C 22.671875 -2.585938 21.390625 -1.445312 19.796875 -0.59375 C 18.203125 0.257812 16.453125 0.6875 14.546875 0.6875 C 13.347656 0.6875 12.238281 0.546875 11.21875 0.265625 C 10.195312 -0.015625 9.242188 -0.296875 8.359375 -0.578125 C 7.472656 -0.867188 6.632812 -1.015625 5.84375 -1.015625 C 4.507812 -1.015625 3.570312 -0.445312 3.03125 0.6875 L 2.5 -10.09375 C 2.90625 -8.863281 3.671875 -7.738281 4.796875 -6.71875 C 5.929688 -5.695312 7.265625 -4.878906 8.796875 -4.265625 C 10.335938 -3.648438 11.925781 -3.34375 13.5625 -3.34375 C 14.789062 -3.34375 15.757812 -3.523438 16.46875 -3.890625 C 17.175781 -4.265625 17.53125 -4.765625 17.53125 -5.390625 Z M 17.53125 -5.390625 "/></g></g></g><g fill="#bd1b1b" fill-opacity="1"><g transform="translate(22.63576, 288.059307)"><g><path d="M 7.640625 -4.578125 L 8.875 -4.578125 L 8.875 -1.046875 C 8.425781 -0.671875 7.90625 -0.382812 7.3125 -0.1875 C 6.71875 0.0078125 6.097656 0.109375 5.453125 0.109375 C 4.535156 0.109375 3.707031 -0.0859375 2.96875 -0.484375 C 2.238281 -0.890625 1.664062 -1.441406 1.25 -2.140625 C 0.832031 -2.847656 0.625 -3.644531 0.625 -4.53125 C 0.625 -5.40625 0.832031 -6.195312 1.25 -6.90625 C 1.664062 -7.613281 2.242188 -8.164062 2.984375 -8.5625 C 3.722656 -8.957031 4.550781 -9.15625 5.46875 -9.15625 C 6.195312 -9.15625 6.851562 -9.035156 7.4375 -8.796875 C 8.03125 -8.566406 8.535156 -8.222656 8.953125 -7.765625 L 8.15625 -6.953125 C 7.425781 -7.660156 6.550781 -8.015625 5.53125 -8.015625 C 4.832031 -8.015625 4.207031 -7.863281 3.65625 -7.5625 C 3.113281 -7.257812 2.6875 -6.84375 2.375 -6.3125 C 2.070312 -5.789062 1.921875 -5.195312 1.921875 -4.53125 C 1.921875 -3.875 2.070312 -3.28125 2.375 -2.75 C 2.6875 -2.21875 3.113281 -1.800781 3.65625 -1.5 C 4.207031 -1.195312 4.828125 -1.046875 5.515625 -1.046875 C 6.328125 -1.046875 7.035156 -1.238281 7.640625 -1.625 Z M 7.640625 -4.578125 "/></g></g></g><g fill="#bd1b1b" fill-opacity="1"><g transform="translate(42.964071, 288.059307)"><g><path d="M 7.9375 -1.125 L 7.9375 0 L 1.359375 0 L 1.359375 -9.0625 L 7.75 -9.0625 L 7.75 -7.9375 L 2.65625 -7.9375 L 2.65625 -5.15625 L 7.1875 -5.15625 L 7.1875 -4.046875 L 2.65625 -4.046875 L 2.65625 -1.125 Z M 7.9375 -1.125 "/></g></g></g><g fill="#bd1b1b" fill-opacity="1"><g transform="translate(61.973954, 288.059307)"><g><path d="M 4 0.109375 C 3.3125 0.109375 2.648438 0.00390625 2.015625 -0.203125 C 1.390625 -0.421875 0.894531 -0.695312 0.53125 -1.03125 L 1.015625 -2.046875 C 1.359375 -1.734375 1.796875 -1.476562 2.328125 -1.28125 C 2.867188 -1.09375 3.425781 -1 4 -1 C 4.75 -1 5.304688 -1.125 5.671875 -1.375 C 6.046875 -1.632812 6.234375 -1.972656 6.234375 -2.390625 C 6.234375 -2.703125 6.128906 -2.953125 5.921875 -3.140625 C 5.722656 -3.335938 5.472656 -3.488281 5.171875 -3.59375 C 4.878906 -3.695312 4.460938 -3.816406 3.921875 -3.953125 C 3.234375 -4.109375 2.679688 -4.269531 2.265625 -4.4375 C 1.847656 -4.601562 1.488281 -4.851562 1.1875 -5.1875 C 0.894531 -5.53125 0.75 -5.992188 0.75 -6.578125 C 0.75 -7.054688 0.875 -7.488281 1.125 -7.875 C 1.382812 -8.269531 1.769531 -8.582031 2.28125 -8.8125 C 2.800781 -9.039062 3.445312 -9.15625 4.21875 -9.15625 C 4.75 -9.15625 5.273438 -9.085938 5.796875 -8.953125 C 6.316406 -8.816406 6.757812 -8.617188 7.125 -8.359375 L 6.703125 -7.328125 C 6.316406 -7.566406 5.910156 -7.75 5.484375 -7.875 C 5.054688 -8 4.632812 -8.0625 4.21875 -8.0625 C 3.488281 -8.0625 2.9375 -7.925781 2.5625 -7.65625 C 2.195312 -7.394531 2.015625 -7.050781 2.015625 -6.625 C 2.015625 -6.3125 2.117188 -6.054688 2.328125 -5.859375 C 2.535156 -5.671875 2.789062 -5.519531 3.09375 -5.40625 C 3.40625 -5.300781 3.820312 -5.191406 4.34375 -5.078125 C 5.03125 -4.910156 5.578125 -4.742188 5.984375 -4.578125 C 6.398438 -4.410156 6.753906 -4.160156 7.046875 -3.828125 C 7.347656 -3.492188 7.5 -3.039062 7.5 -2.46875 C 7.5 -2 7.367188 -1.566406 7.109375 -1.171875 C 6.859375 -0.773438 6.46875 -0.460938 5.9375 -0.234375 C 5.414062 -0.00390625 4.769531 0.109375 4 0.109375 Z M 4 0.109375 "/></g></g></g><g fill="#bd1b1b" fill-opacity="1"><g transform="translate(80.350474, 288.059307)"><g><path d="M 3.15625 -7.9375 L 0.046875 -7.9375 L 0.046875 -9.0625 L 7.546875 -9.0625 L 7.546875 -7.9375 L 4.4375 -7.9375 L 4.4375 0 L 3.15625 0 Z M 3.15625 -7.9375 "/></g></g></g><g fill="#bd1b1b" fill-opacity="1"><g transform="translate(98.287519, 288.059307)"><g><path d="M 7.125 -2.265625 L 2.3125 -2.265625 L 1.3125 0 L -0.015625 0 L 4.09375 -9.0625 L 5.375 -9.0625 L 9.484375 0 L 8.125 0 Z M 6.671875 -3.296875 L 4.71875 -7.734375 L 2.765625 -3.296875 Z M 5.640625 -9.828125 C 5.429688 -9.828125 5.25 -9.867188 5.09375 -9.953125 C 4.945312 -10.046875 4.757812 -10.175781 4.53125 -10.34375 C 4.40625 -10.46875 4.296875 -10.554688 4.203125 -10.609375 C 4.109375 -10.671875 4.007812 -10.703125 3.90625 -10.703125 C 3.71875 -10.703125 3.5625 -10.628906 3.4375 -10.484375 C 3.320312 -10.335938 3.257812 -10.140625 3.25 -9.890625 L 2.546875 -9.890625 C 2.566406 -10.378906 2.691406 -10.765625 2.921875 -11.046875 C 3.148438 -11.328125 3.453125 -11.46875 3.828125 -11.46875 C 4.035156 -11.46875 4.21875 -11.421875 4.375 -11.328125 C 4.53125 -11.242188 4.710938 -11.113281 4.921875 -10.9375 C 5.066406 -10.820312 5.179688 -10.734375 5.265625 -10.671875 C 5.359375 -10.617188 5.453125 -10.59375 5.546875 -10.59375 C 5.734375 -10.59375 5.882812 -10.660156 6 -10.796875 C 6.125 -10.941406 6.191406 -11.132812 6.203125 -11.375 L 6.90625 -11.375 C 6.882812 -10.90625 6.757812 -10.53125 6.53125 -10.25 C 6.300781 -9.96875 6.003906 -9.828125 5.640625 -9.828125 Z M 5.640625 -9.828125 "/></g></g></g><g fill="#bd1b1b" fill-opacity="1"><g transform="translate(118.098797, 288.059307)"><g><path d="M 5.453125 0.109375 C 4.535156 0.109375 3.707031 -0.0859375 2.96875 -0.484375 C 2.238281 -0.890625 1.664062 -1.445312 1.25 -2.15625 C 0.832031 -2.863281 0.625 -3.65625 0.625 -4.53125 C 0.625 -5.394531 0.832031 -6.179688 1.25 -6.890625 C 1.664062 -7.597656 2.238281 -8.148438 2.96875 -8.546875 C 3.707031 -8.953125 4.535156 -9.15625 5.453125 -9.15625 C 6.359375 -9.15625 7.175781 -8.953125 7.90625 -8.546875 C 8.632812 -8.148438 9.207031 -7.597656 9.625 -6.890625 C 10.039062 -6.191406 10.25 -5.40625 10.25 -4.53125 C 10.25 -3.644531 10.039062 -2.847656 9.625 -2.140625 C 9.207031 -1.441406 8.632812 -0.890625 7.90625 -0.484375 C 7.175781 -0.0859375 6.359375 0.109375 5.453125 0.109375 Z M 5.453125 -1.046875 C 6.109375 -1.046875 6.703125 -1.195312 7.234375 -1.5 C 7.765625 -1.800781 8.179688 -2.21875 8.484375 -2.75 C 8.796875 -3.28125 8.953125 -3.875 8.953125 -4.53125 C 8.953125 -5.1875 8.796875 -5.78125 8.484375 -6.3125 C 8.179688 -6.84375 7.765625 -7.257812 7.234375 -7.5625 C 6.703125 -7.863281 6.109375 -8.015625 5.453125 -8.015625 C 4.785156 -8.015625 4.179688 -7.863281 3.640625 -7.5625 C 3.097656 -7.257812 2.675781 -6.84375 2.375 -6.3125 C 2.070312 -5.78125 1.921875 -5.1875 1.921875 -4.53125 C 1.921875 -3.875 2.070312 -3.28125 2.375 -2.75 C 2.675781 -2.21875 3.097656 -1.800781 3.640625 -1.5 C 4.179688 -1.195312 4.785156 -1.046875 5.453125 -1.046875 Z M 5.453125 -1.046875 "/></g></g></g><g fill="#bd1b1b" fill-opacity="1"><g transform="translate(139.306059, 288.059307)"><g/></g></g><g fill="#bd1b1b" fill-opacity="1"><g transform="translate(153.132719, 288.059307)"><g><path d="M 1.359375 -9.0625 L 5.171875 -9.0625 C 6.128906 -9.0625 6.976562 -8.867188 7.71875 -8.484375 C 8.46875 -8.109375 9.046875 -7.578125 9.453125 -6.890625 C 9.859375 -6.203125 10.0625 -5.414062 10.0625 -4.53125 C 10.0625 -3.644531 9.859375 -2.859375 9.453125 -2.171875 C 9.046875 -1.484375 8.46875 -0.945312 7.71875 -0.5625 C 6.976562 -0.1875 6.128906 0 5.171875 0 L 1.359375 0 Z M 5.09375 -1.125 C 5.832031 -1.125 6.476562 -1.265625 7.03125 -1.546875 C 7.582031 -1.835938 8.007812 -2.238281 8.3125 -2.75 C 8.613281 -3.257812 8.765625 -3.851562 8.765625 -4.53125 C 8.765625 -5.195312 8.613281 -5.785156 8.3125 -6.296875 C 8.007812 -6.816406 7.582031 -7.21875 7.03125 -7.5 C 6.476562 -7.789062 5.832031 -7.9375 5.09375 -7.9375 L 2.65625 -7.9375 L 2.65625 -1.125 Z M 5.09375 -1.125 "/></g></g></g><g fill="#bd1b1b" fill-opacity="1"><g transform="translate(174.159016, 288.059307)"><g><path d="M 7.9375 -1.125 L 7.9375 0 L 1.359375 0 L 1.359375 -9.0625 L 7.75 -9.0625 L 7.75 -7.9375 L 2.65625 -7.9375 L 2.65625 -5.15625 L 7.1875 -5.15625 L 7.1875 -4.046875 L 2.65625 -4.046875 L 2.65625 -1.125 Z M 7.9375 -1.125 "/></g></g></g><g fill="#bd1b1b" fill-opacity="1"><g transform="translate(193.168899, 288.059307)"><g/></g></g><g fill="#bd1b1b" fill-opacity="1"><g transform="translate(206.995558, 288.059307)"><g><path d="M 7.9375 -1.125 L 7.9375 0 L 1.359375 0 L 1.359375 -9.0625 L 7.75 -9.0625 L 7.75 -7.9375 L 2.65625 -7.9375 L 2.65625 -5.15625 L 7.1875 -5.15625 L 7.1875 -4.046875 L 2.65625 -4.046875 L 2.65625 -1.125 Z M 7.9375 -1.125 "/></g></g></g><g fill="#bd1b1b" fill-opacity="1"><g transform="translate(226.005452, 288.059307)"><g><path d="M 4 0.109375 C 3.3125 0.109375 2.648438 0.00390625 2.015625 -0.203125 C 1.390625 -0.421875 0.894531 -0.695312 0.53125 -1.03125 L 1.015625 -2.046875 C 1.359375 -1.734375 1.796875 -1.476562 2.328125 -1.28125 C 2.867188 -1.09375 3.425781 -1 4 -1 C 4.75 -1 5.304688 -1.125 5.671875 -1.375 C 6.046875 -1.632812 6.234375 -1.972656 6.234375 -2.390625 C 6.234375 -2.703125 6.128906 -2.953125 5.921875 -3.140625 C 5.722656 -3.335938 5.472656 -3.488281 5.171875 -3.59375 C 4.878906 -3.695312 4.460938 -3.816406 3.921875 -3.953125 C 3.234375 -4.109375 2.679688 -4.269531 2.265625 -4.4375 C 1.847656 -4.601562 1.488281 -4.851562 1.1875 -5.1875 C 0.894531 -5.53125 0.75 -5.992188 0.75 -6.578125 C 0.75 -7.054688 0.875 -7.488281 1.125 -7.875 C 1.382812 -8.269531 1.769531 -8.582031 2.28125 -8.8125 C 2.800781 -9.039062 3.445312 -9.15625 4.21875 -9.15625 C 4.75 -9.15625 5.273438 -9.085938 5.796875 -8.953125 C 6.316406 -8.816406 6.757812 -8.617188 7.125 -8.359375 L 6.703125 -7.328125 C 6.316406 -7.566406 5.910156 -7.75 5.484375 -7.875 C 5.054688 -8 4.632812 -8.0625 4.21875 -8.0625 C 3.488281 -8.0625 2.9375 -7.925781 2.5625 -7.65625 C 2.195312 -7.394531 2.015625 -7.050781 2.015625 -6.625 C 2.015625 -6.3125 2.117188 -6.054688 2.328125 -5.859375 C 2.535156 -5.671875 2.789062 -5.519531 3.09375 -5.40625 C 3.40625 -5.300781 3.820312 -5.191406 4.34375 -5.078125 C 5.03125 -4.910156 5.578125 -4.742188 5.984375 -4.578125 C 6.398438 -4.410156 6.753906 -4.160156 7.046875 -3.828125 C 7.347656 -3.492188 7.5 -3.039062 7.5 -2.46875 C 7.5 -2 7.367188 -1.566406 7.109375 -1.171875 C 6.859375 -0.773438 6.46875 -0.460938 5.9375 -0.234375 C 5.414062 -0.00390625 4.769531 0.109375 4 0.109375 Z M 4 0.109375 "/></g></g></g><g fill="#bd1b1b" fill-opacity="1"><g transform="translate(244.381961, 288.059307)"><g><path d="M 3.15625 -7.9375 L 0.046875 -7.9375 L 0.046875 -9.0625 L 7.546875 -9.0625 L 7.546875 -7.9375 L 4.4375 -7.9375 L 4.4375 0 L 3.15625 0 Z M 3.15625 -7.9375 "/></g></g></g><g fill="#bd1b1b" fill-opacity="1"><g transform="translate(262.319018, 288.059307)"><g><path d="M 5.453125 0.109375 C 4.535156 0.109375 3.707031 -0.0859375 2.96875 -0.484375 C 2.238281 -0.890625 1.664062 -1.445312 1.25 -2.15625 C 0.832031 -2.863281 0.625 -3.65625 0.625 -4.53125 C 0.625 -5.394531 0.832031 -6.179688 1.25 -6.890625 C 1.664062 -7.597656 2.238281 -8.148438 2.96875 -8.546875 C 3.707031 -8.953125 4.535156 -9.15625 5.453125 -9.15625 C 6.359375 -9.15625 7.175781 -8.953125 7.90625 -8.546875 C 8.632812 -8.148438 9.207031 -7.597656 9.625 -6.890625 C 10.039062 -6.191406 10.25 -5.40625 10.25 -4.53125 C 10.25 -3.644531 10.039062 -2.847656 9.625 -2.140625 C 9.207031 -1.441406 8.632812 -0.890625 7.90625 -0.484375 C 7.175781 -0.0859375 6.359375 0.109375 5.453125 0.109375 Z M 5.453125 -1.046875 C 6.109375 -1.046875 6.703125 -1.195312 7.234375 -1.5 C 7.765625 -1.800781 8.179688 -2.21875 8.484375 -2.75 C 8.796875 -3.28125 8.953125 -3.875 8.953125 -4.53125 C 8.953125 -5.1875 8.796875 -5.78125 8.484375 -6.3125 C 8.179688 -6.84375 7.765625 -7.257812 7.234375 -7.5625 C 6.703125 -7.863281 6.109375 -8.015625 5.453125 -8.015625 C 4.785156 -8.015625 4.179688 -7.863281 3.640625 -7.5625 C 3.097656 -7.257812 2.675781 -6.84375 2.375 -6.3125 C 2.070312 -5.78125 1.921875 -5.1875 1.921875 -4.53125 C 1.921875 -3.875 2.070312 -3.28125 2.375 -2.75 C 2.675781 -2.21875 3.097656 -1.800781 3.640625 -1.5 C 4.179688 -1.195312 4.785156 -1.046875 5.453125 -1.046875 Z M 5.453125 -1.046875 "/></g></g></g><g fill="#bd1b1b" fill-opacity="1"><g transform="translate(283.526269, 288.059307)"><g><path d="M 10.6875 0.828125 C 10.394531 1.171875 10.050781 1.429688 9.65625 1.609375 C 9.269531 1.796875 8.851562 1.890625 8.40625 1.890625 C 7.84375 1.890625 7.3125 1.753906 6.8125 1.484375 C 6.3125 1.210938 5.742188 0.75 5.109375 0.09375 C 4.253906 0.0507812 3.484375 -0.175781 2.796875 -0.59375 C 2.109375 -1.007812 1.570312 -1.554688 1.1875 -2.234375 C 0.8125 -2.921875 0.625 -3.6875 0.625 -4.53125 C 0.625 -5.394531 0.832031 -6.179688 1.25 -6.890625 C 1.664062 -7.597656 2.238281 -8.148438 2.96875 -8.546875 C 3.707031 -8.953125 4.535156 -9.15625 5.453125 -9.15625 C 6.359375 -9.15625 7.175781 -8.953125 7.90625 -8.546875 C 8.632812 -8.148438 9.207031 -7.597656 9.625 -6.890625 C 10.039062 -6.191406 10.25 -5.40625 10.25 -4.53125 C 10.25 -3.789062 10.097656 -3.109375 9.796875 -2.484375 C 9.503906 -1.859375 9.085938 -1.332031 8.546875 -0.90625 C 8.003906 -0.488281 7.382812 -0.195312 6.6875 -0.03125 C 6.988281 0.28125 7.28125 0.503906 7.5625 0.640625 C 7.84375 0.785156 8.128906 0.859375 8.421875 0.859375 C 9.054688 0.859375 9.609375 0.601562 10.078125 0.09375 Z M 1.921875 -4.53125 C 1.921875 -3.875 2.070312 -3.28125 2.375 -2.75 C 2.675781 -2.21875 3.097656 -1.800781 3.640625 -1.5 C 4.179688 -1.195312 4.785156 -1.046875 5.453125 -1.046875 C 6.109375 -1.046875 6.703125 -1.195312 7.234375 -1.5 C 7.765625 -1.800781 8.179688 -2.21875 8.484375 -2.75 C 8.796875 -3.28125 8.953125 -3.875 8.953125 -4.53125 C 8.953125 -5.1875 8.796875 -5.78125 8.484375 -6.3125 C 8.179688 -6.84375 7.765625 -7.257812 7.234375 -7.5625 C 6.703125 -7.863281 6.109375 -8.015625 5.453125 -8.015625 C 4.785156 -8.015625 4.179688 -7.863281 3.640625 -7.5625 C 3.097656 -7.257812 2.675781 -6.84375 2.375 -6.3125 C 2.070312 -5.78125 1.921875 -5.1875 1.921875 -4.53125 Z M 1.921875 -4.53125 "/></g></g></g><g fill="#bd1b1b" fill-opacity="1"><g transform="translate(304.733521, 288.059307)"><g><path d="M 5.109375 0.109375 C 3.898438 0.109375 2.957031 -0.234375 2.28125 -0.921875 C 1.613281 -1.617188 1.28125 -2.613281 1.28125 -3.90625 L 1.28125 -9.0625 L 2.578125 -9.0625 L 2.578125 -3.953125 C 2.578125 -2.015625 3.425781 -1.046875 5.125 -1.046875 C 5.945312 -1.046875 6.578125 -1.285156 7.015625 -1.765625 C 7.460938 -2.242188 7.6875 -2.972656 7.6875 -3.953125 L 7.6875 -9.0625 L 8.9375 -9.0625 L 8.9375 -3.90625 C 8.9375 -2.601562 8.597656 -1.609375 7.921875 -0.921875 C 7.253906 -0.234375 6.316406 0.109375 5.109375 0.109375 Z M 5.109375 0.109375 "/></g></g></g><g fill="#bd1b1b" fill-opacity="1"><g transform="translate(325.307433, 288.059307)"><g><path d="M 7.9375 -1.125 L 7.9375 0 L 1.359375 0 L 1.359375 -9.0625 L 7.75 -9.0625 L 7.75 -7.9375 L 2.65625 -7.9375 L 2.65625 -5.15625 L 7.1875 -5.15625 L 7.1875 -4.046875 L 2.65625 -4.046875 L 2.65625 -1.125 Z M 7.9375 -1.125 "/></g></g></g><g fill="#bd1b1b" fill-opacity="1"><g transform="translate(344.317305, 288.059307)"><g><path d="M 4 0.109375 C 3.3125 0.109375 2.648438 0.00390625 2.015625 -0.203125 C 1.390625 -0.421875 0.894531 -0.695312 0.53125 -1.03125 L 1.015625 -2.046875 C 1.359375 -1.734375 1.796875 -1.476562 2.328125 -1.28125 C 2.867188 -1.09375 3.425781 -1 4 -1 C 4.75 -1 5.304688 -1.125 5.671875 -1.375 C 6.046875 -1.632812 6.234375 -1.972656 6.234375 -2.390625 C 6.234375 -2.703125 6.128906 -2.953125 5.921875 -3.140625 C 5.722656 -3.335938 5.472656 -3.488281 5.171875 -3.59375 C 4.878906 -3.695312 4.460938 -3.816406 3.921875 -3.953125 C 3.234375 -4.109375 2.679688 -4.269531 2.265625 -4.4375 C 1.847656 -4.601562 1.488281 -4.851562 1.1875 -5.1875 C 0.894531 -5.53125 0.75 -5.992188 0.75 -6.578125 C 0.75 -7.054688 0.875 -7.488281 1.125 -7.875 C 1.382812 -8.269531 1.769531 -8.582031 2.28125 -8.8125 C 2.800781 -9.039062 3.445312 -9.15625 4.21875 -9.15625 C 4.75 -9.15625 5.273438 -9.085938 5.796875 -8.953125 C 6.316406 -8.816406 6.757812 -8.617188 7.125 -8.359375 L 6.703125 -7.328125 C 6.316406 -7.566406 5.910156 -7.75 5.484375 -7.875 C 5.054688 -8 4.632812 -8.0625 4.21875 -8.0625 C 3.488281 -8.0625 2.9375 -7.925781 2.5625 -7.65625 C 2.195312 -7.394531 2.015625 -7.050781 2.015625 -6.625 C 2.015625 -6.3125 2.117188 -6.054688 2.328125 -5.859375 C 2.535156 -5.671875 2.789062 -5.519531 3.09375 -5.40625 C 3.40625 -5.300781 3.820312 -5.191406 4.34375 -5.078125 C 5.03125 -4.910156 5.578125 -4.742188 5.984375 -4.578125 C 6.398438 -4.410156 6.753906 -4.160156 7.046875 -3.828125 C 7.347656 -3.492188 7.5 -3.039062 7.5 -2.46875 C 7.5 -2 7.367188 -1.566406 7.109375 -1.171875 C 6.859375 -0.773438 6.46875 -0.460938 5.9375 -0.234375 C 5.414062 -0.00390625 4.769531 0.109375 4 0.109375 Z M 4 0.109375 "/></g></g></g><g clip-path="url(#5980e46910)"><path fill="#bd1b1b" d="M 148.703125 123.988281 C 148.703125 123.988281 144.566406 143.667969 147.617188 160.957031 L 142.386719 188.050781 L 149.652344 183.546875 C 149.652344 183.546875 151.03125 159.144531 152.121094 156.890625 C 153.210938 154.636719 175.582031 150.789062 175.582031 150.789062 C 175.582031 150.789062 171.367188 161.609375 167.15625 163.933594 C 162.945312 166.1875 155.609375 167.929688 155.609375 167.929688 C 155.609375 167.929688 155.753906 197.5625 148.34375 208.53125 C 148.34375 208.53125 171.296875 201.410156 174.347656 198.578125 C 177.324219 195.816406 178.777344 177.296875 178.777344 177.296875 L 164.175781 183.472656 C 164.175781 183.472656 177.46875 171.921875 184.367188 171.921875 C 191.265625 171.921875 194.320312 189.28125 198.824219 189.863281 C 203.398438 190.371094 216.253906 180.128906 216.253906 180.128906 L 211.609375 169.089844 L 198.535156 173.085938 L 209.429688 166.183594 C 207.175781 129.214844 191.34375 104.882812 155.320312 123.765625 C 155.320312 123.765625 163.746094 138.074219 185.535156 149.550781 C 172.238281 145.050781 158.4375 134.007812 148.703125 123.988281 Z M 148.703125 123.988281 " fill-opacity="1" fill-rule="evenodd"/></g><g clip-path="url(#3f38a03e0b)"><path fill="#5b0000" d="M 153.5 121.082031 L 128.804688 83.382812 C 153.863281 92.460938 185.894531 82.441406 205.285156 96.53125 C 232.523438 116.140625 212.332031 166.402344 246.179688 194.800781 C 246.179688 194.800781 227.003906 191.53125 217.703125 160.808594 C 213.347656 146.574219 211.167969 136.261719 208.117188 128.488281 C 200.203125 108.003906 173.765625 102.195312 154.953125 108.589844 L 160.324219 117.8125 C 158.074219 118.753906 155.894531 119.773438 153.789062 120.9375 Z M 153.5 121.082031 " fill-opacity="1" fill-rule="evenodd"/></g></svg>