<svg xmlns="http://www.w3.org/2000/svg" xmlns:xlink="http://www.w3.org/1999/xlink" width="1920" zoomAndPan="magnify" viewBox="0 0 1440 809.999993" height="1080" preserveAspectRatio="xMidYMid meet" version="1.0"><defs><g/><clipPath id="44e3097dc4"><path d="M 57 144 L 374 144 L 374 533.78125 L 57 533.78125 Z M 57 144 " clip-rule="nonzero"/></clipPath><clipPath id="7f20458370"><path d="M 0 0.199219 L 501 0.199219 L 501 476 L 0 476 Z M 0 0.199219 " clip-rule="nonzero"/></clipPath><clipPath id="8d9a642c86"><rect x="0" width="1291" y="0" height="535"/></clipPath></defs><g transform="matrix(1, 0, 0, 1, 0, 145)"><g clip-path="url(#8d9a642c86)"><g fill="#5b0000" fill-opacity="1"><g transform="translate(601.212751, 225.1446)"><g><path d="M 73.75 -47.421875 L 60.671875 -87.34375 L 47.421875 -47.421875 Z M 42.015625 0 L 2.609375 0 C 5.054688 -0.582031 7.320312 -1.890625 9.40625 -3.921875 C 11.5 -5.953125 13.445312 -8.363281 15.25 -11.15625 C 17.050781 -13.945312 18.5625 -16.707031 19.78125 -19.4375 C 21.007812 -22.164062 21.972656 -24.460938 22.671875 -26.328125 L 47.25 -96.59375 C 47.945312 -98.5625 48.582031 -100.878906 49.15625 -103.546875 C 49.738281 -106.222656 50.085938 -108.898438 50.203125 -111.578125 C 50.328125 -114.253906 50.039062 -116.550781 49.34375 -118.46875 C 48.644531 -120.382812 47.304688 -121.578125 45.328125 -122.046875 L 81.0625 -122.046875 L 114.890625 -25.28125 C 115.941406 -22.601562 117.394531 -19.40625 119.25 -15.6875 C 121.113281 -11.96875 123.351562 -8.597656 125.96875 -5.578125 C 128.582031 -2.554688 131.398438 -0.695312 134.421875 0 L 79.328125 0 C 81.878906 -0.695312 83.390625 -2.5 83.859375 -5.40625 C 84.328125 -8.3125 84.238281 -11.566406 83.59375 -15.171875 C 82.957031 -18.773438 82.234375 -21.910156 81.421875 -24.578125 L 78.984375 -31.734375 L 42.1875 -31.734375 L 40.09375 -25.28125 C 39.394531 -23.300781 38.753906 -20.972656 38.171875 -18.296875 C 37.597656 -15.628906 37.25 -12.988281 37.125 -10.375 C 37.007812 -7.757812 37.300781 -5.492188 38 -3.578125 C 38.695312 -1.660156 40.035156 -0.46875 42.015625 0 Z M 42.015625 0 "/></g></g></g><g fill="#5b0000" fill-opacity="1"><g transform="translate(773.085065, 225.1446)"><g><path d="M 63.28125 0 L 9.59375 0 C 11.800781 -0.582031 13.597656 -1.914062 14.984375 -4 C 16.378906 -6.09375 17.457031 -8.535156 18.21875 -11.328125 C 18.976562 -14.117188 19.5 -16.910156 19.78125 -19.703125 C 20.070312 -22.492188 20.21875 -24.816406 20.21875 -26.671875 L 20.21875 -95.546875 C 20.21875 -97.398438 20.070312 -99.691406 19.78125 -102.421875 C 19.5 -105.160156 18.976562 -107.953125 18.21875 -110.796875 C 17.457031 -113.640625 16.378906 -116.109375 14.984375 -118.203125 C 13.597656 -120.296875 11.800781 -121.578125 9.59375 -122.046875 L 79.84375 -122.046875 C 86.59375 -122.046875 92.695312 -120.390625 98.15625 -117.078125 C 103.613281 -113.765625 107.96875 -109.347656 111.21875 -103.828125 C 114.476562 -98.304688 116.109375 -92.113281 116.109375 -85.25 C 116.109375 -78.164062 114.273438 -71.71875 110.609375 -65.90625 C 106.953125 -60.09375 102.21875 -55.675781 96.40625 -52.65625 L 110.1875 -23.359375 C 111.695312 -20.566406 113.582031 -17.457031 115.84375 -14.03125 C 118.113281 -10.601562 120.644531 -7.550781 123.4375 -4.875 C 126.226562 -2.207031 129.015625 -0.582031 131.796875 0 L 77.0625 0 C 79.039062 -0.582031 80.257812 -1.914062 80.71875 -4 C 81.1875 -6.09375 81.128906 -8.535156 80.546875 -11.328125 C 79.960938 -14.117188 79.175781 -16.910156 78.1875 -19.703125 C 77.207031 -22.492188 76.25 -24.816406 75.3125 -26.671875 L 64.859375 -48.640625 L 52.65625 -48.640625 L 52.65625 -26.671875 C 52.65625 -24.816406 52.800781 -22.492188 53.09375 -19.703125 C 53.382812 -16.910156 53.90625 -14.117188 54.65625 -11.328125 C 55.414062 -8.535156 56.488281 -6.09375 57.875 -4 C 59.269531 -1.914062 61.070312 -0.582031 63.28125 0 Z M 68.515625 -106.34375 L 52.65625 -106.34375 L 52.65625 -64.328125 L 68.515625 -64.328125 C 71.890625 -64.328125 74.738281 -66.390625 77.0625 -70.515625 C 79.382812 -74.648438 80.546875 -79.5625 80.546875 -85.25 C 80.546875 -91.0625 79.382812 -96.03125 77.0625 -100.15625 C 74.738281 -104.28125 71.890625 -106.34375 68.515625 -106.34375 Z M 68.515625 -106.34375 "/></g></g></g><g fill="#5b0000" fill-opacity="1"><g transform="translate(942.342876, 225.1446)"><g><path d="M 105.484375 0 L 9.59375 0 C 11.800781 -0.582031 13.597656 -1.914062 14.984375 -4 C 16.378906 -6.09375 17.484375 -8.535156 18.296875 -11.328125 C 19.117188 -14.117188 19.671875 -16.910156 19.953125 -19.703125 C 20.242188 -22.492188 20.390625 -24.816406 20.390625 -26.671875 L 20.390625 -95.546875 C 20.390625 -97.398438 20.242188 -99.691406 19.953125 -102.421875 C 19.671875 -105.160156 19.117188 -107.953125 18.296875 -110.796875 C 17.484375 -113.640625 16.378906 -116.109375 14.984375 -118.203125 C 13.597656 -120.296875 11.800781 -121.578125 9.59375 -122.046875 L 101.984375 -122.046875 L 104.4375 -82.109375 C 104.082031 -83.390625 103.296875 -85.335938 102.078125 -87.953125 C 100.859375 -90.566406 98.941406 -93.269531 96.328125 -96.0625 C 93.710938 -98.851562 90.222656 -101.265625 85.859375 -103.296875 C 81.503906 -105.328125 76.070312 -106.34375 69.5625 -106.34375 L 52.65625 -106.34375 L 52.65625 -69.21875 C 56.71875 -69.5625 60.640625 -70.253906 64.421875 -71.296875 C 68.203125 -72.347656 71.425781 -73.890625 74.09375 -75.921875 C 76.769531 -77.960938 78.515625 -80.664062 79.328125 -84.03125 L 79.328125 -38 C 78.515625 -41.375 76.769531 -44.078125 74.09375 -46.109375 C 71.425781 -48.148438 68.203125 -49.691406 64.421875 -50.734375 C 60.640625 -51.773438 56.71875 -52.472656 52.65625 -52.828125 L 52.65625 -15.6875 L 73.046875 -15.6875 C 79.554688 -15.6875 84.988281 -16.703125 89.34375 -18.734375 C 93.707031 -20.773438 97.195312 -23.1875 99.8125 -25.96875 C 102.425781 -28.757812 104.34375 -31.492188 105.5625 -34.171875 C 106.78125 -36.847656 107.566406 -38.765625 107.921875 -39.921875 Z M 105.484375 0 "/></g></g></g><g fill="#5b0000" fill-opacity="1"><g transform="translate(1089.987554, 225.1446)"><g><path d="M 74.796875 -23.015625 C 74.796875 -26.847656 73.195312 -30.1875 70 -33.03125 C 66.800781 -35.882812 62.644531 -38.53125 57.53125 -40.96875 C 52.414062 -43.40625 47.007812 -45.898438 41.3125 -48.453125 C 35.625 -51.015625 30.222656 -53.953125 25.109375 -57.265625 C 19.992188 -60.578125 15.835938 -64.5 12.640625 -69.03125 C 9.441406 -73.570312 7.84375 -79.035156 7.84375 -85.421875 C 7.84375 -90.890625 9.035156 -96.003906 11.421875 -100.765625 C 13.804688 -105.535156 17.085938 -109.722656 21.265625 -113.328125 C 25.453125 -116.929688 30.25 -119.773438 35.65625 -121.859375 C 41.0625 -123.953125 46.785156 -125 52.828125 -125 C 57.941406 -125 62.472656 -124.414062 66.421875 -123.25 C 70.378906 -122.09375 74.039062 -120.90625 77.40625 -119.6875 C 80.78125 -118.46875 84.035156 -117.859375 87.171875 -117.859375 C 92.628906 -117.859375 96.460938 -120.238281 98.671875 -125 L 100.9375 -78.984375 C 99.3125 -84.210938 96.175781 -89.003906 91.53125 -93.359375 C 86.882812 -97.722656 81.453125 -101.210938 75.234375 -103.828125 C 69.015625 -106.441406 62.648438 -107.75 56.140625 -107.75 C 51.140625 -107.75 47.1875 -106.90625 44.28125 -105.21875 C 41.375 -103.53125 39.921875 -101.175781 39.921875 -98.15625 C 39.921875 -94.90625 41.519531 -92.03125 44.71875 -89.53125 C 47.914062 -87.03125 52.070312 -84.644531 57.1875 -82.375 C 62.300781 -80.113281 67.703125 -77.703125 73.390625 -75.140625 C 79.085938 -72.585938 84.492188 -69.625 89.609375 -66.25 C 94.722656 -62.875 98.90625 -58.863281 102.15625 -54.21875 C 105.414062 -49.570312 107.046875 -43.9375 107.046875 -37.3125 C 107.046875 -29.988281 104.984375 -23.273438 100.859375 -17.171875 C 96.734375 -11.066406 91.269531 -6.179688 84.46875 -2.515625 C 77.664062 1.140625 70.195312 2.96875 62.0625 2.96875 C 56.945312 2.96875 52.207031 2.351562 47.84375 1.125 C 43.488281 -0.09375 39.421875 -1.3125 35.640625 -2.53125 C 31.867188 -3.75 28.300781 -4.359375 24.9375 -4.359375 C 19.238281 -4.359375 15.226562 -1.914062 12.90625 2.96875 L 10.640625 -43.0625 C 12.378906 -37.832031 15.660156 -33.035156 20.484375 -28.671875 C 25.304688 -24.316406 31 -20.832031 37.5625 -18.21875 C 44.132812 -15.601562 50.90625 -14.296875 57.875 -14.296875 C 63.113281 -14.296875 67.242188 -15.078125 70.265625 -16.640625 C 73.285156 -18.210938 74.796875 -20.335938 74.796875 -23.015625 Z M 74.796875 -23.015625 "/></g></g></g><g fill="#bd1b1b" fill-opacity="1"><g transform="translate(559.555544, 314.188358)"><g><path d="M 32.546875 -19.53125 L 37.84375 -19.53125 L 37.84375 -4.46875 C 35.9375 -2.882812 33.710938 -1.671875 31.171875 -0.828125 C 28.628906 0.015625 25.984375 0.4375 23.234375 0.4375 C 19.328125 0.4375 15.8125 -0.414062 12.6875 -2.125 C 9.5625 -3.832031 7.101562 -6.1875 5.3125 -9.1875 C 3.53125 -12.1875 2.640625 -15.5625 2.640625 -19.3125 C 2.640625 -23.0625 3.53125 -26.441406 5.3125 -29.453125 C 7.101562 -32.472656 9.570312 -34.828125 12.71875 -36.515625 C 15.863281 -38.210938 19.40625 -39.0625 23.34375 -39.0625 C 26.425781 -39.0625 29.226562 -38.554688 31.75 -37.546875 C 34.269531 -36.535156 36.410156 -35.054688 38.171875 -33.109375 L 34.765625 -29.6875 C 31.671875 -32.664062 27.9375 -34.15625 23.5625 -34.15625 C 20.613281 -34.15625 17.972656 -33.519531 15.640625 -32.25 C 13.304688 -30.976562 11.476562 -29.210938 10.15625 -26.953125 C 8.832031 -24.691406 8.171875 -22.144531 8.171875 -19.3125 C 8.171875 -16.507812 8.832031 -13.976562 10.15625 -11.71875 C 11.476562 -9.457031 13.304688 -7.679688 15.640625 -6.390625 C 17.972656 -5.109375 20.59375 -4.46875 23.5 -4.46875 C 26.957031 -4.46875 29.972656 -5.296875 32.546875 -6.953125 Z M 32.546875 -19.53125 "/></g></g></g><g fill="#bd1b1b" fill-opacity="1"><g transform="translate(646.289675, 314.188358)"><g><path d="M 33.828125 -4.796875 L 33.828125 0 L 5.796875 0 L 5.796875 -38.625 L 33.046875 -38.625 L 33.046875 -33.828125 L 11.3125 -33.828125 L 11.3125 -21.953125 L 30.671875 -21.953125 L 30.671875 -17.265625 L 11.3125 -17.265625 L 11.3125 -4.796875 Z M 33.828125 -4.796875 "/></g></g></g><g fill="#bd1b1b" fill-opacity="1"><g transform="translate(727.398513, 314.188358)"><g><path d="M 17.046875 0.4375 C 14.140625 0.4375 11.332031 -0.0078125 8.625 -0.90625 C 5.925781 -1.8125 3.804688 -2.976562 2.265625 -4.40625 L 4.296875 -8.71875 C 5.773438 -7.394531 7.660156 -6.316406 9.953125 -5.484375 C 12.253906 -4.660156 14.617188 -4.25 17.046875 -4.25 C 20.242188 -4.25 22.632812 -4.789062 24.21875 -5.875 C 25.800781 -6.957031 26.59375 -8.398438 26.59375 -10.203125 C 26.59375 -11.523438 26.160156 -12.597656 25.296875 -13.421875 C 24.429688 -14.253906 23.363281 -14.890625 22.09375 -15.328125 C 20.820312 -15.773438 19.03125 -16.273438 16.71875 -16.828125 C 13.8125 -17.523438 11.460938 -18.222656 9.671875 -18.921875 C 7.890625 -19.617188 6.363281 -20.691406 5.09375 -22.140625 C 3.832031 -23.597656 3.203125 -25.5625 3.203125 -28.03125 C 3.203125 -30.082031 3.742188 -31.9375 4.828125 -33.59375 C 5.910156 -35.25 7.554688 -36.570312 9.765625 -37.5625 C 11.972656 -38.5625 14.710938 -39.0625 17.984375 -39.0625 C 20.265625 -39.0625 22.507812 -38.765625 24.71875 -38.171875 C 26.925781 -37.585938 28.820312 -36.742188 30.40625 -35.640625 L 28.578125 -31.234375 C 26.960938 -32.253906 25.234375 -33.03125 23.390625 -33.5625 C 21.554688 -34.101562 19.753906 -34.375 17.984375 -34.375 C 14.859375 -34.375 12.515625 -33.800781 10.953125 -32.65625 C 9.390625 -31.519531 8.609375 -30.050781 8.609375 -28.25 C 8.609375 -26.925781 9.046875 -25.847656 9.921875 -25.015625 C 10.804688 -24.191406 11.898438 -23.550781 13.203125 -23.09375 C 14.515625 -22.632812 16.289062 -22.144531 18.53125 -21.625 C 21.4375 -20.925781 23.769531 -20.226562 25.53125 -19.53125 C 27.300781 -18.832031 28.820312 -17.765625 30.09375 -16.328125 C 31.363281 -14.890625 32 -12.957031 32 -10.53125 C 32 -8.507812 31.445312 -6.660156 30.34375 -4.984375 C 29.238281 -3.316406 27.5625 -1.992188 25.3125 -1.015625 C 23.070312 -0.046875 20.316406 0.4375 17.046875 0.4375 Z M 17.046875 0.4375 "/></g></g></g><g fill="#bd1b1b" fill-opacity="1"><g transform="translate(805.805006, 314.188358)"><g><path d="M 13.46875 -33.828125 L 0.21875 -33.828125 L 0.21875 -38.625 L 32.171875 -38.625 L 32.171875 -33.828125 L 18.921875 -33.828125 L 18.921875 0 L 13.46875 0 Z M 13.46875 -33.828125 "/></g></g></g><g fill="#bd1b1b" fill-opacity="1"><g transform="translate(882.336401, 314.188358)"><g><path d="M 30.40625 -9.65625 L 9.875 -9.65625 L 5.625 0 L -0.0625 0 L 17.4375 -38.625 L 22.890625 -38.625 L 40.4375 0 L 34.640625 0 Z M 28.46875 -14.0625 L 20.140625 -33 L 11.8125 -14.0625 Z M 24.0625 -41.9375 C 23.175781 -41.9375 22.410156 -42.117188 21.765625 -42.484375 C 21.128906 -42.847656 20.332031 -43.398438 19.375 -44.140625 C 18.820312 -44.648438 18.34375 -45.023438 17.9375 -45.265625 C 17.53125 -45.503906 17.125 -45.625 16.71875 -45.625 C 15.914062 -45.625 15.253906 -45.320312 14.734375 -44.71875 C 14.222656 -44.113281 13.945312 -43.273438 13.90625 -42.203125 L 10.921875 -42.203125 C 11.003906 -44.265625 11.53125 -45.898438 12.5 -47.109375 C 13.476562 -48.328125 14.757812 -48.9375 16.34375 -48.9375 C 17.21875 -48.9375 17.992188 -48.742188 18.671875 -48.359375 C 19.359375 -47.972656 20.144531 -47.410156 21.03125 -46.671875 C 21.65625 -46.160156 22.148438 -45.785156 22.515625 -45.546875 C 22.878906 -45.304688 23.265625 -45.1875 23.671875 -45.1875 C 24.484375 -45.1875 25.144531 -45.476562 25.65625 -46.0625 C 26.175781 -46.65625 26.453125 -47.46875 26.484375 -48.5 L 29.46875 -48.5 C 29.394531 -46.507812 28.867188 -44.914062 27.890625 -43.71875 C 26.921875 -42.53125 25.644531 -41.9375 24.0625 -41.9375 Z M 24.0625 -41.9375 "/></g></g></g><g fill="#bd1b1b" fill-opacity="1"><g transform="translate(966.864526, 314.188358)"><g><path d="M 23.234375 0.4375 C 19.328125 0.4375 15.8125 -0.414062 12.6875 -2.125 C 9.5625 -3.832031 7.101562 -6.191406 5.3125 -9.203125 C 3.53125 -12.222656 2.640625 -15.59375 2.640625 -19.3125 C 2.640625 -23.019531 3.53125 -26.382812 5.3125 -29.40625 C 7.101562 -32.425781 9.5625 -34.789062 12.6875 -36.5 C 15.8125 -38.207031 19.328125 -39.0625 23.234375 -39.0625 C 27.085938 -39.0625 30.578125 -38.207031 33.703125 -36.5 C 36.835938 -34.789062 39.285156 -32.4375 41.046875 -29.4375 C 42.816406 -26.4375 43.703125 -23.0625 43.703125 -19.3125 C 43.703125 -15.5625 42.816406 -12.1875 41.046875 -9.1875 C 39.285156 -6.1875 36.835938 -3.832031 33.703125 -2.125 C 30.578125 -0.414062 27.085938 0.4375 23.234375 0.4375 Z M 23.234375 -4.46875 C 26.054688 -4.46875 28.597656 -5.109375 30.859375 -6.390625 C 33.128906 -7.679688 34.914062 -9.457031 36.21875 -11.71875 C 37.519531 -13.976562 38.171875 -16.507812 38.171875 -19.3125 C 38.171875 -22.101562 37.519531 -24.628906 36.21875 -26.890625 C 34.914062 -29.160156 33.128906 -30.9375 30.859375 -32.21875 C 28.597656 -33.507812 26.054688 -34.15625 23.234375 -34.15625 C 20.398438 -34.15625 17.832031 -33.507812 15.53125 -32.21875 C 13.226562 -30.9375 11.425781 -29.160156 10.125 -26.890625 C 8.820312 -24.628906 8.171875 -22.101562 8.171875 -19.3125 C 8.171875 -16.507812 8.820312 -13.976562 10.125 -11.71875 C 11.425781 -9.457031 13.226562 -7.679688 15.53125 -6.390625 C 17.832031 -5.109375 20.398438 -4.46875 23.234375 -4.46875 Z M 23.234375 -4.46875 "/></g></g></g><g fill="#bd1b1b" fill-opacity="1"><g transform="translate(1057.348852, 314.188358)"><g/></g></g><g fill="#bd1b1b" fill-opacity="1"><g transform="translate(1116.342603, 314.188358)"><g><path d="M 5.796875 -38.625 L 22.0625 -38.625 C 26.144531 -38.625 29.769531 -37.8125 32.9375 -36.1875 C 36.101562 -34.570312 38.554688 -32.300781 40.296875 -29.375 C 42.046875 -26.457031 42.921875 -23.101562 42.921875 -19.3125 C 42.921875 -15.519531 42.046875 -12.160156 40.296875 -9.234375 C 38.554688 -6.316406 36.101562 -4.046875 32.9375 -2.421875 C 29.769531 -0.804688 26.144531 0 22.0625 0 L 5.796875 0 Z M 21.734375 -4.796875 C 24.859375 -4.796875 27.609375 -5.398438 29.984375 -6.609375 C 32.359375 -7.828125 34.1875 -9.53125 35.46875 -11.71875 C 36.757812 -13.90625 37.40625 -16.4375 37.40625 -19.3125 C 37.40625 -22.175781 36.757812 -24.703125 35.46875 -26.890625 C 34.1875 -29.078125 32.359375 -30.78125 29.984375 -32 C 27.609375 -33.21875 24.859375 -33.828125 21.734375 -33.828125 L 11.3125 -33.828125 L 11.3125 -4.796875 Z M 21.734375 -4.796875 "/></g></g></g><g fill="#bd1b1b" fill-opacity="1"><g transform="translate(1206.054811, 314.188358)"><g><path d="M 33.828125 -4.796875 L 33.828125 0 L 5.796875 0 L 5.796875 -38.625 L 33.046875 -38.625 L 33.046875 -33.828125 L 11.3125 -33.828125 L 11.3125 -21.953125 L 30.671875 -21.953125 L 30.671875 -17.265625 L 11.3125 -17.265625 L 11.3125 -4.796875 Z M 33.828125 -4.796875 "/></g></g></g><g fill="#bd1b1b" fill-opacity="1"><g transform="translate(591.205544, 390.988358)"><g><path d="M 33.828125 -4.796875 L 33.828125 0 L 5.796875 0 L 5.796875 -38.625 L 33.046875 -38.625 L 33.046875 -33.828125 L 11.3125 -33.828125 L 11.3125 -21.953125 L 30.671875 -21.953125 L 30.671875 -17.265625 L 11.3125 -17.265625 L 11.3125 -4.796875 Z M 33.828125 -4.796875 "/></g></g></g><g fill="#bd1b1b" fill-opacity="1"><g transform="translate(672.314382, 390.988358)"><g><path d="M 17.046875 0.4375 C 14.140625 0.4375 11.332031 -0.0078125 8.625 -0.90625 C 5.925781 -1.8125 3.804688 -2.976562 2.265625 -4.40625 L 4.296875 -8.71875 C 5.773438 -7.394531 7.660156 -6.316406 9.953125 -5.484375 C 12.253906 -4.660156 14.617188 -4.25 17.046875 -4.25 C 20.242188 -4.25 22.632812 -4.789062 24.21875 -5.875 C 25.800781 -6.957031 26.59375 -8.398438 26.59375 -10.203125 C 26.59375 -11.523438 26.160156 -12.597656 25.296875 -13.421875 C 24.429688 -14.253906 23.363281 -14.890625 22.09375 -15.328125 C 20.820312 -15.773438 19.03125 -16.273438 16.71875 -16.828125 C 13.8125 -17.523438 11.460938 -18.222656 9.671875 -18.921875 C 7.890625 -19.617188 6.363281 -20.691406 5.09375 -22.140625 C 3.832031 -23.597656 3.203125 -25.5625 3.203125 -28.03125 C 3.203125 -30.082031 3.742188 -31.9375 4.828125 -33.59375 C 5.910156 -35.25 7.554688 -36.570312 9.765625 -37.5625 C 11.972656 -38.5625 14.710938 -39.0625 17.984375 -39.0625 C 20.265625 -39.0625 22.507812 -38.765625 24.71875 -38.171875 C 26.925781 -37.585938 28.820312 -36.742188 30.40625 -35.640625 L 28.578125 -31.234375 C 26.960938 -32.253906 25.234375 -33.03125 23.390625 -33.5625 C 21.554688 -34.101562 19.753906 -34.375 17.984375 -34.375 C 14.859375 -34.375 12.515625 -33.800781 10.953125 -32.65625 C 9.390625 -31.519531 8.609375 -30.050781 8.609375 -28.25 C 8.609375 -26.925781 9.046875 -25.847656 9.921875 -25.015625 C 10.804688 -24.191406 11.898438 -23.550781 13.203125 -23.09375 C 14.515625 -22.632812 16.289062 -22.144531 18.53125 -21.625 C 21.4375 -20.925781 23.769531 -20.226562 25.53125 -19.53125 C 27.300781 -18.832031 28.820312 -17.765625 30.09375 -16.328125 C 31.363281 -14.890625 32 -12.957031 32 -10.53125 C 32 -8.507812 31.445312 -6.660156 30.34375 -4.984375 C 29.238281 -3.316406 27.5625 -1.992188 25.3125 -1.015625 C 23.070312 -0.046875 20.316406 0.4375 17.046875 0.4375 Z M 17.046875 0.4375 "/></g></g></g><g fill="#bd1b1b" fill-opacity="1"><g transform="translate(750.720875, 390.988358)"><g><path d="M 13.46875 -33.828125 L 0.21875 -33.828125 L 0.21875 -38.625 L 32.171875 -38.625 L 32.171875 -33.828125 L 18.921875 -33.828125 L 18.921875 0 L 13.46875 0 Z M 13.46875 -33.828125 "/></g></g></g><g fill="#bd1b1b" fill-opacity="1"><g transform="translate(827.25227, 390.988358)"><g><path d="M 23.234375 0.4375 C 19.328125 0.4375 15.8125 -0.414062 12.6875 -2.125 C 9.5625 -3.832031 7.101562 -6.191406 5.3125 -9.203125 C 3.53125 -12.222656 2.640625 -15.59375 2.640625 -19.3125 C 2.640625 -23.019531 3.53125 -26.382812 5.3125 -29.40625 C 7.101562 -32.425781 9.5625 -34.789062 12.6875 -36.5 C 15.8125 -38.207031 19.328125 -39.0625 23.234375 -39.0625 C 27.085938 -39.0625 30.578125 -38.207031 33.703125 -36.5 C 36.835938 -34.789062 39.285156 -32.4375 41.046875 -29.4375 C 42.816406 -26.4375 43.703125 -23.0625 43.703125 -19.3125 C 43.703125 -15.5625 42.816406 -12.1875 41.046875 -9.1875 C 39.285156 -6.1875 36.835938 -3.832031 33.703125 -2.125 C 30.578125 -0.414062 27.085938 0.4375 23.234375 0.4375 Z M 23.234375 -4.46875 C 26.054688 -4.46875 28.597656 -5.109375 30.859375 -6.390625 C 33.128906 -7.679688 34.914062 -9.457031 36.21875 -11.71875 C 37.519531 -13.976562 38.171875 -16.507812 38.171875 -19.3125 C 38.171875 -22.101562 37.519531 -24.628906 36.21875 -26.890625 C 34.914062 -29.160156 33.128906 -30.9375 30.859375 -32.21875 C 28.597656 -33.507812 26.054688 -34.15625 23.234375 -34.15625 C 20.398438 -34.15625 17.832031 -33.507812 15.53125 -32.21875 C 13.226562 -30.9375 11.425781 -29.160156 10.125 -26.890625 C 8.820312 -24.628906 8.171875 -22.101562 8.171875 -19.3125 C 8.171875 -16.507812 8.820312 -13.976562 10.125 -11.71875 C 11.425781 -9.457031 13.226562 -7.679688 15.53125 -6.390625 C 17.832031 -5.109375 20.398438 -4.46875 23.234375 -4.46875 Z M 23.234375 -4.46875 "/></g></g></g><g fill="#bd1b1b" fill-opacity="1"><g transform="translate(917.736596, 390.988358)"><g><path d="M 45.578125 3.53125 C 44.328125 5 42.875 6.117188 41.21875 6.890625 C 39.5625 7.671875 37.773438 8.0625 35.859375 8.0625 C 33.429688 8.0625 31.160156 7.476562 29.046875 6.3125 C 26.929688 5.15625 24.515625 3.179688 21.796875 0.390625 C 18.148438 0.203125 14.863281 -0.769531 11.9375 -2.53125 C 9.019531 -4.300781 6.738281 -6.644531 5.09375 -9.5625 C 3.457031 -12.488281 2.640625 -15.738281 2.640625 -19.3125 C 2.640625 -23.019531 3.53125 -26.382812 5.3125 -29.40625 C 7.101562 -32.425781 9.5625 -34.789062 12.6875 -36.5 C 15.8125 -38.207031 19.328125 -39.0625 23.234375 -39.0625 C 27.085938 -39.0625 30.578125 -38.207031 33.703125 -36.5 C 36.835938 -34.789062 39.285156 -32.4375 41.046875 -29.4375 C 42.816406 -26.4375 43.703125 -23.0625 43.703125 -19.3125 C 43.703125 -16.144531 43.066406 -13.238281 41.796875 -10.59375 C 40.523438 -7.945312 38.738281 -5.722656 36.4375 -3.921875 C 34.144531 -2.117188 31.507812 -0.867188 28.53125 -0.171875 C 29.8125 1.191406 31.050781 2.175781 32.25 2.78125 C 33.445312 3.394531 34.671875 3.703125 35.921875 3.703125 C 38.640625 3.703125 40.992188 2.597656 42.984375 0.390625 Z M 8.171875 -19.3125 C 8.171875 -16.507812 8.820312 -13.976562 10.125 -11.71875 C 11.425781 -9.457031 13.226562 -7.679688 15.53125 -6.390625 C 17.832031 -5.109375 20.398438 -4.46875 23.234375 -4.46875 C 26.023438 -4.46875 28.5625 -5.109375 30.84375 -6.390625 C 33.125 -7.679688 34.914062 -9.457031 36.21875 -11.71875 C 37.519531 -13.976562 38.171875 -16.507812 38.171875 -19.3125 C 38.171875 -22.101562 37.519531 -24.628906 36.21875 -26.890625 C 34.914062 -29.160156 33.125 -30.9375 30.84375 -32.21875 C 28.5625 -33.507812 26.023438 -34.15625 23.234375 -34.15625 C 20.398438 -34.15625 17.832031 -33.507812 15.53125 -32.21875 C 13.226562 -30.9375 11.425781 -29.160156 10.125 -26.890625 C 8.820312 -24.628906 8.171875 -22.101562 8.171875 -19.3125 Z M 8.171875 -19.3125 "/></g></g></g><g fill="#bd1b1b" fill-opacity="1"><g transform="translate(1008.220923, 390.988358)"><g><path d="M 21.796875 0.4375 C 16.640625 0.4375 12.628906 -1.03125 9.765625 -3.96875 C 6.898438 -6.914062 5.46875 -11.144531 5.46875 -16.65625 L 5.46875 -38.625 L 10.984375 -38.625 L 10.984375 -16.875 C 10.984375 -8.601562 14.601562 -4.46875 21.84375 -4.46875 C 25.375 -4.46875 28.078125 -5.488281 29.953125 -7.53125 C 31.828125 -9.570312 32.765625 -12.6875 32.765625 -16.875 L 32.765625 -38.625 L 38.125 -38.625 L 38.125 -16.65625 C 38.125 -11.101562 36.6875 -6.863281 33.8125 -3.9375 C 30.945312 -1.019531 26.941406 0.4375 21.796875 0.4375 Z M 21.796875 0.4375 "/></g></g></g><g fill="#bd1b1b" fill-opacity="1"><g transform="translate(1096.002907, 390.988358)"><g><path d="M 33.828125 -4.796875 L 33.828125 0 L 5.796875 0 L 5.796875 -38.625 L 33.046875 -38.625 L 33.046875 -33.828125 L 11.3125 -33.828125 L 11.3125 -21.953125 L 30.671875 -21.953125 L 30.671875 -17.265625 L 11.3125 -17.265625 L 11.3125 -4.796875 Z M 33.828125 -4.796875 "/></g></g></g><g fill="#bd1b1b" fill-opacity="1"><g transform="translate(1177.111745, 390.988358)"><g><path d="M 17.046875 0.4375 C 14.140625 0.4375 11.332031 -0.0078125 8.625 -0.90625 C 5.925781 -1.8125 3.804688 -2.976562 2.265625 -4.40625 L 4.296875 -8.71875 C 5.773438 -7.394531 7.660156 -6.316406 9.953125 -5.484375 C 12.253906 -4.660156 14.617188 -4.25 17.046875 -4.25 C 20.242188 -4.25 22.632812 -4.789062 24.21875 -5.875 C 25.800781 -6.957031 26.59375 -8.398438 26.59375 -10.203125 C 26.59375 -11.523438 26.160156 -12.597656 25.296875 -13.421875 C 24.429688 -14.253906 23.363281 -14.890625 22.09375 -15.328125 C 20.820312 -15.773438 19.03125 -16.273438 16.71875 -16.828125 C 13.8125 -17.523438 11.460938 -18.222656 9.671875 -18.921875 C 7.890625 -19.617188 6.363281 -20.691406 5.09375 -22.140625 C 3.832031 -23.597656 3.203125 -25.5625 3.203125 -28.03125 C 3.203125 -30.082031 3.742188 -31.9375 4.828125 -33.59375 C 5.910156 -35.25 7.554688 -36.570312 9.765625 -37.5625 C 11.972656 -38.5625 14.710938 -39.0625 17.984375 -39.0625 C 20.265625 -39.0625 22.507812 -38.765625 24.71875 -38.171875 C 26.925781 -37.585938 28.820312 -36.742188 30.40625 -35.640625 L 28.578125 -31.234375 C 26.960938 -32.253906 25.234375 -33.03125 23.390625 -33.5625 C 21.554688 -34.101562 19.753906 -34.375 17.984375 -34.375 C 14.859375 -34.375 12.515625 -33.800781 10.953125 -32.65625 C 9.390625 -31.519531 8.609375 -30.050781 8.609375 -28.25 C 8.609375 -26.925781 9.046875 -25.847656 9.921875 -25.015625 C 10.804688 -24.191406 11.898438 -23.550781 13.203125 -23.09375 C 14.515625 -22.632812 16.289062 -22.144531 18.53125 -21.625 C 21.4375 -20.925781 23.769531 -20.226562 25.53125 -19.53125 C 27.300781 -18.832031 28.820312 -17.765625 30.09375 -16.328125 C 31.363281 -14.890625 32 -12.957031 32 -10.53125 C 32 -8.507812 31.445312 -6.660156 30.34375 -4.984375 C 29.238281 -3.316406 27.5625 -1.992188 25.3125 -1.015625 C 23.070312 -0.046875 20.316406 0.4375 17.046875 0.4375 Z M 17.046875 0.4375 "/></g></g></g><g clip-path="url(#44e3097dc4)"><path fill="#bd1b1b" d="M 84.910156 173.59375 C 84.910156 173.59375 67.246094 257.574219 80.265625 331.335938 L 57.957031 446.925781 L 88.945312 427.714844 C 88.945312 427.714844 94.832031 323.59375 99.488281 313.980469 C 104.144531 304.371094 199.582031 287.945312 199.582031 287.945312 C 199.582031 287.945312 181.609375 334.125 163.636719 344.035156 C 145.664062 353.644531 114.363281 361.078125 114.363281 361.078125 C 114.363281 361.078125 114.980469 487.519531 83.371094 534.3125 C 83.371094 534.3125 181.300781 503.941406 194.316406 491.851562 C 207.023438 480.074219 213.21875 401.050781 213.21875 401.050781 L 150.929688 427.394531 C 150.929688 427.394531 207.644531 378.121094 237.074219 378.121094 C 266.507812 378.121094 279.535156 452.191406 298.746094 454.667969 C 318.269531 456.835938 373.128906 413.136719 373.128906 413.136719 L 353.296875 366.03125 L 297.519531 383.074219 L 344.007812 353.632812 C 334.394531 195.894531 266.839844 92.082031 113.132812 172.65625 C 113.132812 172.65625 149.082031 233.707031 242.050781 282.671875 C 185.316406 263.460938 126.441406 216.355469 84.910156 173.59375 Z M 84.910156 173.59375 " fill-opacity="1" fill-rule="evenodd"/></g><g clip-path="url(#7f20458370)"><path fill="#5b0000" d="M 105.371094 161.195312 L 0 0.359375 C 106.917969 39.089844 243.578125 -3.667969 326.320312 56.445312 C 442.53125 140.117188 356.382812 354.5625 500.796875 475.738281 C 500.796875 475.738281 418.984375 461.792969 379.3125 330.707031 C 360.71875 269.964844 351.417969 225.964844 338.398438 192.796875 C 304.632812 105.410156 191.828125 80.621094 111.566406 107.898438 L 134.492188 147.25 C 124.882812 151.277344 115.589844 155.621094 106.597656 160.578125 Z M 105.371094 161.195312 " fill-opacity="1" fill-rule="evenodd"/></g></g></g></svg>