<svg width="14" height="9" viewBox="0 0 14 9" fill="none" xmlns="http://www.w3.org/2000/svg">
<path fill-rule="evenodd" clip-rule="evenodd" d="M7.55576 8.20261C7.36815 8.39016 7.11374 8.49552 6.84846 8.49552C6.58319 8.49552 6.32877 8.39016 6.14117 8.20261L0.481807 2.54325C0.386257 2.45096 0.310043 2.34057 0.257612 2.21852C0.205181 2.09646 0.177584 1.96519 0.176429 1.83235C0.175275 1.69952 0.200588 1.56778 0.250889 1.44484C0.301191 1.32189 0.375475 1.21019 0.469407 1.11626C0.563339 1.02233 0.675037 0.948041 0.797985 0.89774C0.920933 0.847438 1.05267 0.822126 1.1855 0.82328C1.31834 0.824434 1.44961 0.852032 1.57167 0.904463C1.69372 0.956894 1.80411 1.03311 1.8964 1.12866L6.84846 6.08072L11.8005 1.12866C11.9892 0.946423 12.2419 0.845587 12.5042 0.847866C12.7665 0.850146 13.0174 0.955358 13.2029 1.14084C13.3884 1.32633 13.4936 1.57725 13.4959 1.83955C13.4982 2.10186 13.3974 2.35457 13.2151 2.54325L7.55576 8.20261Z" fill="#b7c5dc"/>
</svg>
