<svg width="9" height="14" viewBox="0 0 9 14" fill="none" xmlns="http://www.w3.org/2000/svg">
<path fill-rule="evenodd" clip-rule="evenodd" d="M8.21555 5.93997C8.4031 6.12758 8.50846 6.38199 8.50846 6.64727C8.50846 6.91254 8.4031 7.16695 8.21555 7.35456L2.55619 13.0139C2.4639 13.1095 2.35351 13.1857 2.23146 13.2381C2.1094 13.2905 1.97813 13.3181 1.84529 13.3193C1.71246 13.3205 1.58072 13.2951 1.45778 13.2448C1.33483 13.1945 1.22313 13.1203 1.1292 13.0263C1.03526 12.9324 0.960981 12.8207 0.910679 12.6977C0.860377 12.5748 0.835065 12.4431 0.836219 12.3102C0.837374 12.1774 0.864972 12.0461 0.917402 11.9241C0.969833 11.802 1.04605 11.6916 1.1416 11.5993L6.09366 6.64727L1.1416 1.6952C0.959363 1.50652 0.858526 1.25381 0.860806 0.991507C0.863085 0.7292 0.968298 0.478283 1.15378 0.292798C1.33927 0.107312 1.59019 0.00209905 1.85249 -0.000180232C2.1148 -0.00245951 2.36751 0.0983763 2.55619 0.280611L8.21555 5.93997Z" fill="#b7c5dc"/>
</svg>
